<mxfile host="app.diagrams.net" agent="Mozilla/5.0 (Windows NT 10.0; Win64; x64) AppleWebKit/537.36 (KHTML, like Gecko) Chrome/134.0.0.0 Safari/537.36 Edg/134.0.0.0" version="26.1.0">
  <diagram name="第 1 页" id="FV5gj1g-K8BPPhAmdO8X">
    <mxGraphModel dx="1213" dy="676" grid="1" gridSize="10" guides="1" tooltips="1" connect="1" arrows="1" fold="1" page="1" pageScale="1" pageWidth="827" pageHeight="1169" math="0" shadow="0">
      <root>
        <mxCell id="0" />
        <mxCell id="1" parent="0" />
        <mxCell id="xZ0YTImkga5NCMyIBryO-13" style="edgeStyle=orthogonalEdgeStyle;rounded=0;orthogonalLoop=1;jettySize=auto;html=1;exitX=0.5;exitY=0;exitDx=0;exitDy=0;entryX=0;entryY=0.5;entryDx=0;entryDy=0;" edge="1" parent="1" source="xZ0YTImkga5NCMyIBryO-2" target="xZ0YTImkga5NCMyIBryO-10">
          <mxGeometry relative="1" as="geometry" />
        </mxCell>
        <mxCell id="xZ0YTImkga5NCMyIBryO-2" value="Conv&lt;div&gt;1x1&lt;/div&gt;" style="rounded=1;whiteSpace=wrap;html=1;fillColor=#ffe6cc;strokeColor=#d79b00;" vertex="1" parent="1">
          <mxGeometry x="20" y="250" width="86" height="40" as="geometry" />
        </mxCell>
        <mxCell id="xZ0YTImkga5NCMyIBryO-12" style="edgeStyle=orthogonalEdgeStyle;rounded=0;orthogonalLoop=1;jettySize=auto;html=1;exitX=0.5;exitY=0;exitDx=0;exitDy=0;entryX=0;entryY=0.5;entryDx=0;entryDy=0;" edge="1" parent="1" source="xZ0YTImkga5NCMyIBryO-3" target="xZ0YTImkga5NCMyIBryO-10">
          <mxGeometry relative="1" as="geometry" />
        </mxCell>
        <mxCell id="xZ0YTImkga5NCMyIBryO-3" value="Conv&lt;div&gt;11x11&lt;/div&gt;" style="rounded=1;whiteSpace=wrap;html=1;fillColor=#ffe6cc;strokeColor=#d79b00;" vertex="1" parent="1">
          <mxGeometry x="150" y="250" width="86" height="40" as="geometry" />
        </mxCell>
        <mxCell id="xZ0YTImkga5NCMyIBryO-11" style="edgeStyle=orthogonalEdgeStyle;rounded=0;orthogonalLoop=1;jettySize=auto;html=1;exitX=0.5;exitY=0;exitDx=0;exitDy=0;entryX=0.5;entryY=1;entryDx=0;entryDy=0;" edge="1" parent="1" source="xZ0YTImkga5NCMyIBryO-4" target="xZ0YTImkga5NCMyIBryO-10">
          <mxGeometry relative="1" as="geometry" />
        </mxCell>
        <mxCell id="xZ0YTImkga5NCMyIBryO-4" value="Conv&lt;div&gt;22x22&lt;/div&gt;" style="rounded=1;whiteSpace=wrap;html=1;fillColor=#ffe6cc;strokeColor=#d79b00;" vertex="1" parent="1">
          <mxGeometry x="280" y="250" width="86" height="40" as="geometry" />
        </mxCell>
        <mxCell id="xZ0YTImkga5NCMyIBryO-14" style="edgeStyle=orthogonalEdgeStyle;rounded=0;orthogonalLoop=1;jettySize=auto;html=1;exitX=0.5;exitY=0;exitDx=0;exitDy=0;entryX=1;entryY=0.5;entryDx=0;entryDy=0;" edge="1" parent="1" source="xZ0YTImkga5NCMyIBryO-5" target="xZ0YTImkga5NCMyIBryO-10">
          <mxGeometry relative="1" as="geometry" />
        </mxCell>
        <mxCell id="xZ0YTImkga5NCMyIBryO-5" value="Conv&lt;div&gt;33x33&lt;/div&gt;" style="rounded=1;whiteSpace=wrap;html=1;fillColor=#ffe6cc;strokeColor=#d79b00;" vertex="1" parent="1">
          <mxGeometry x="413.5" y="250" width="86" height="40" as="geometry" />
        </mxCell>
        <mxCell id="xZ0YTImkga5NCMyIBryO-15" style="edgeStyle=orthogonalEdgeStyle;rounded=0;orthogonalLoop=1;jettySize=auto;html=1;exitX=0.5;exitY=0;exitDx=0;exitDy=0;entryX=1;entryY=0.5;entryDx=0;entryDy=0;" edge="1" parent="1" source="xZ0YTImkga5NCMyIBryO-6" target="xZ0YTImkga5NCMyIBryO-10">
          <mxGeometry relative="1" as="geometry" />
        </mxCell>
        <mxCell id="xZ0YTImkga5NCMyIBryO-6" value="FSAM" style="rounded=1;whiteSpace=wrap;html=1;fillColor=#e1d5e7;strokeColor=#9673a6;" vertex="1" parent="1">
          <mxGeometry x="550" y="190" width="86" height="40" as="geometry" />
        </mxCell>
        <mxCell id="xZ0YTImkga5NCMyIBryO-9" style="edgeStyle=orthogonalEdgeStyle;rounded=0;orthogonalLoop=1;jettySize=auto;html=1;exitX=0.5;exitY=0;exitDx=0;exitDy=0;entryX=0.5;entryY=1;entryDx=0;entryDy=0;" edge="1" parent="1" source="xZ0YTImkga5NCMyIBryO-7" target="xZ0YTImkga5NCMyIBryO-6">
          <mxGeometry relative="1" as="geometry" />
        </mxCell>
        <mxCell id="xZ0YTImkga5NCMyIBryO-7" value="DCAM" style="rounded=1;whiteSpace=wrap;html=1;fillColor=#d5e8d4;strokeColor=#82b366;" vertex="1" parent="1">
          <mxGeometry x="550" y="260" width="86" height="40" as="geometry" />
        </mxCell>
        <mxCell id="xZ0YTImkga5NCMyIBryO-16" style="edgeStyle=orthogonalEdgeStyle;rounded=0;orthogonalLoop=1;jettySize=auto;html=1;exitX=0.5;exitY=0;exitDx=0;exitDy=0;entryX=0.5;entryY=1;entryDx=0;entryDy=0;" edge="1" parent="1" source="xZ0YTImkga5NCMyIBryO-8" target="xZ0YTImkga5NCMyIBryO-4">
          <mxGeometry relative="1" as="geometry" />
        </mxCell>
        <mxCell id="xZ0YTImkga5NCMyIBryO-17" style="edgeStyle=orthogonalEdgeStyle;rounded=0;orthogonalLoop=1;jettySize=auto;html=1;exitX=0.5;exitY=0;exitDx=0;exitDy=0;entryX=0.5;entryY=1;entryDx=0;entryDy=0;" edge="1" parent="1" source="xZ0YTImkga5NCMyIBryO-8" target="xZ0YTImkga5NCMyIBryO-3">
          <mxGeometry relative="1" as="geometry">
            <Array as="points">
              <mxPoint x="323" y="320" />
              <mxPoint x="193" y="320" />
            </Array>
          </mxGeometry>
        </mxCell>
        <mxCell id="xZ0YTImkga5NCMyIBryO-18" style="edgeStyle=orthogonalEdgeStyle;rounded=0;orthogonalLoop=1;jettySize=auto;html=1;exitX=0.5;exitY=0;exitDx=0;exitDy=0;entryX=0.5;entryY=1;entryDx=0;entryDy=0;" edge="1" parent="1" source="xZ0YTImkga5NCMyIBryO-8" target="xZ0YTImkga5NCMyIBryO-5">
          <mxGeometry relative="1" as="geometry">
            <Array as="points">
              <mxPoint x="323" y="320" />
              <mxPoint x="457" y="320" />
            </Array>
          </mxGeometry>
        </mxCell>
        <mxCell id="xZ0YTImkga5NCMyIBryO-30" value="&lt;font style=&quot;font-size: 14px;&quot;&gt;大卷积分支&lt;/font&gt;" style="edgeLabel;html=1;align=center;verticalAlign=middle;resizable=0;points=[];" vertex="1" connectable="0" parent="xZ0YTImkga5NCMyIBryO-18">
          <mxGeometry x="-0.54" y="-2" relative="1" as="geometry">
            <mxPoint as="offset" />
          </mxGeometry>
        </mxCell>
        <mxCell id="xZ0YTImkga5NCMyIBryO-19" style="edgeStyle=orthogonalEdgeStyle;rounded=0;orthogonalLoop=1;jettySize=auto;html=1;exitX=0.5;exitY=0;exitDx=0;exitDy=0;entryX=0.5;entryY=1;entryDx=0;entryDy=0;" edge="1" parent="1">
          <mxGeometry relative="1" as="geometry">
            <mxPoint x="323" y="405" as="sourcePoint" />
            <mxPoint x="593" y="305" as="targetPoint" />
            <Array as="points">
              <mxPoint x="323" y="365" />
              <mxPoint x="593" y="365" />
            </Array>
          </mxGeometry>
        </mxCell>
        <mxCell id="xZ0YTImkga5NCMyIBryO-32" value="&lt;font style=&quot;font-size: 14px;&quot;&gt;全局分支&lt;/font&gt;" style="edgeLabel;html=1;align=center;verticalAlign=middle;resizable=0;points=[];" vertex="1" connectable="0" parent="xZ0YTImkga5NCMyIBryO-19">
          <mxGeometry x="0.9039" y="-2" relative="1" as="geometry">
            <mxPoint x="-2" y="17" as="offset" />
          </mxGeometry>
        </mxCell>
        <mxCell id="xZ0YTImkga5NCMyIBryO-20" style="edgeStyle=orthogonalEdgeStyle;rounded=0;orthogonalLoop=1;jettySize=auto;html=1;exitX=0.5;exitY=0;exitDx=0;exitDy=0;entryX=0.5;entryY=1;entryDx=0;entryDy=0;" edge="1" parent="1" target="xZ0YTImkga5NCMyIBryO-2">
          <mxGeometry relative="1" as="geometry">
            <mxPoint x="323" y="405" as="sourcePoint" />
            <mxPoint x="63" y="295" as="targetPoint" />
            <Array as="points">
              <mxPoint x="323" y="365" />
              <mxPoint x="63" y="365" />
            </Array>
          </mxGeometry>
        </mxCell>
        <mxCell id="xZ0YTImkga5NCMyIBryO-31" value="&lt;font style=&quot;font-size: 14px;&quot;&gt;局部分支&lt;/font&gt;" style="edgeLabel;html=1;align=center;verticalAlign=middle;resizable=0;points=[];" vertex="1" connectable="0" parent="xZ0YTImkga5NCMyIBryO-20">
          <mxGeometry x="0.7244" relative="1" as="geometry">
            <mxPoint as="offset" />
          </mxGeometry>
        </mxCell>
        <mxCell id="xZ0YTImkga5NCMyIBryO-8" value="Conv&lt;div&gt;1x1&lt;/div&gt;" style="rounded=1;whiteSpace=wrap;html=1;fillColor=#dae8fc;strokeColor=#6c8ebf;" vertex="1" parent="1">
          <mxGeometry x="280" y="400" width="86" height="40" as="geometry" />
        </mxCell>
        <mxCell id="xZ0YTImkga5NCMyIBryO-26" style="edgeStyle=orthogonalEdgeStyle;rounded=0;orthogonalLoop=1;jettySize=auto;html=1;exitX=0.5;exitY=0;exitDx=0;exitDy=0;" edge="1" parent="1" source="xZ0YTImkga5NCMyIBryO-10">
          <mxGeometry relative="1" as="geometry">
            <mxPoint x="323" y="120" as="targetPoint" />
          </mxGeometry>
        </mxCell>
        <mxCell id="xZ0YTImkga5NCMyIBryO-10" value="" style="shape=orEllipse;perimeter=ellipsePerimeter;whiteSpace=wrap;html=1;backgroundOutline=1;" vertex="1" parent="1">
          <mxGeometry x="308" y="146" width="30" height="30" as="geometry" />
        </mxCell>
        <mxCell id="xZ0YTImkga5NCMyIBryO-25" value="" style="endArrow=classic;html=1;rounded=0;" edge="1" parent="1">
          <mxGeometry width="50" height="50" relative="1" as="geometry">
            <mxPoint x="323" y="480" as="sourcePoint" />
            <mxPoint x="323" y="440" as="targetPoint" />
          </mxGeometry>
        </mxCell>
        <mxCell id="xZ0YTImkga5NCMyIBryO-28" style="edgeStyle=orthogonalEdgeStyle;rounded=0;orthogonalLoop=1;jettySize=auto;html=1;exitX=0.5;exitY=0;exitDx=0;exitDy=0;" edge="1" parent="1" source="xZ0YTImkga5NCMyIBryO-27">
          <mxGeometry relative="1" as="geometry">
            <mxPoint x="323" y="50" as="targetPoint" />
          </mxGeometry>
        </mxCell>
        <mxCell id="xZ0YTImkga5NCMyIBryO-27" value="Conv&lt;div&gt;1x1&lt;/div&gt;" style="rounded=1;whiteSpace=wrap;html=1;fillColor=#dae8fc;strokeColor=#6c8ebf;" vertex="1" parent="1">
          <mxGeometry x="280" y="80" width="86" height="40" as="geometry" />
        </mxCell>
      </root>
    </mxGraphModel>
  </diagram>
</mxfile>
